<svg width="27" height="25" viewBox="0 0 27 25" fill="none" xmlns="http://www.w3.org/2000/svg">
<path d="M24.4688 0.125C25.8662 0.125 27 1.5101 27 3.21875C27 4.19199 26.6256 5.10723 25.9875 5.69375L14.5125 16.2125C13.9113 16.7604 13.0887 16.7604 12.4875 16.2125L1.0125 5.69375C0.3751 5.10723 0 4.19199 0 3.21875C0 1.5101 1.13326 0.125 2.53125 0.125H24.4688ZM11.475 17.8625C12.6773 18.9646 14.3227 18.9646 15.525 17.8625L27 7.34375V20.75C27 23.0252 25.4865 24.875 23.625 24.875H3.375C1.51084 24.875 0 23.0252 0 20.75V7.34375L11.475 17.8625Z" fill="#003DCC"/>
</svg>
