<svg width="38" height="39" viewBox="0 0 38 39" fill="none" xmlns="http://www.w3.org/2000/svg">
<path d="M34.4375 4.875C36.4043 4.875 38 6.51193 38 8.53125C38 9.68145 37.473 10.7631 36.575 11.4562L20.425 23.8875C19.5789 24.535 18.4211 24.535 17.575 23.8875L1.425 11.4562C0.527918 10.7631 0 9.68145 0 8.53125C0 6.51193 1.59496 4.875 3.5625 4.875H34.4375ZM16.15 25.8375C17.8422 27.14 20.1578 27.14 21.85 25.8375L38 13.4062V29.25C38 31.9389 35.8699 34.125 33.25 34.125H4.75C2.12637 34.125 0 31.9389 0 29.25V13.4062L16.15 25.8375Z" fill="#003DCC"/>
</svg>
