<svg width="33" height="29" viewBox="0 0 33 29" fill="none" xmlns="http://www.w3.org/2000/svg">
<path d="M11.0377 23.3508C11.0377 23.4707 10.8847 23.5666 10.6917 23.5666C10.4722 23.5846 10.3192 23.4887 10.3192 23.3508C10.3192 23.2308 10.4722 23.1349 10.6651 23.1349C10.8647 23.1169 11.0377 23.2128 11.0377 23.3508ZM8.96855 23.0809C8.92198 23.2008 9.05504 23.3388 9.25464 23.3747C9.42762 23.4347 9.62722 23.3747 9.66714 23.2548C9.70706 23.1349 9.58065 22.997 9.38105 22.943C9.20807 22.901 9.01512 22.961 8.96855 23.0809ZM11.9093 22.979C11.7163 23.0209 11.5833 23.1349 11.6032 23.2728C11.6232 23.3927 11.7962 23.4707 11.9958 23.4287C12.1887 23.3867 12.3218 23.2728 12.3018 23.1529C12.2819 23.0389 12.1022 22.961 11.9093 22.979ZM16.2871 0C7.05907 0 0 6.31442 0 14.6317C0 21.2819 4.64395 26.9727 11.2772 28.9756C12.1288 29.1135 12.4282 28.6398 12.4282 28.25C12.4282 27.8782 12.4083 25.8274 12.4083 24.5681C12.4083 24.5681 7.75101 25.4676 6.77298 22.7811C6.77298 22.7811 6.01452 21.0361 4.92339 20.5863C4.92339 20.5863 3.3998 19.6449 5.02984 19.6628C5.02984 19.6628 6.68649 19.7828 7.59798 21.21C9.05504 23.5247 11.4968 22.859 12.4482 22.4633C12.6012 21.5038 13.0337 20.8382 13.5127 20.4424C9.79355 20.0706 6.04113 19.5849 6.04113 13.8162C6.04113 12.1671 6.54677 11.3396 7.61129 10.2842C7.43831 9.89439 6.87278 8.2873 7.78427 6.21248C9.1748 5.8227 12.375 7.83156 12.375 7.83156C13.7056 7.49575 15.1361 7.32185 16.5532 7.32185C17.9704 7.32185 19.4008 7.49575 20.7315 7.83156C20.7315 7.83156 23.9317 5.8167 25.3222 6.21248C26.2337 8.2933 25.6681 9.89439 25.4952 10.2842C26.5597 11.3456 27.2117 12.1731 27.2117 13.8162C27.2117 19.6029 23.2929 20.0646 19.5738 20.4424C20.1859 20.9161 20.7048 21.8156 20.7048 23.2248C20.7048 25.2457 20.6849 27.7463 20.6849 28.238C20.6849 28.6278 20.9909 29.1015 21.8359 28.9636C28.4891 26.9727 33 21.2819 33 14.6317C33 6.31442 25.5151 0 16.2871 0ZM6.46694 20.6823C6.38044 20.7422 6.4004 20.8802 6.51351 20.9941C6.61996 21.09 6.77298 21.132 6.85948 21.0541C6.94597 20.9941 6.92601 20.8562 6.8129 20.7422C6.70645 20.6463 6.55343 20.6043 6.46694 20.6823ZM5.74839 20.1965C5.70181 20.2745 5.76835 20.3704 5.90141 20.4304C6.00786 20.4904 6.14093 20.4724 6.1875 20.3884C6.23407 20.3105 6.16754 20.2145 6.03448 20.1546C5.90141 20.1186 5.79496 20.1366 5.74839 20.1965ZM7.90403 22.3313C7.79758 22.4093 7.8375 22.5892 7.99052 22.7031C8.14355 22.841 8.33649 22.859 8.42298 22.7631C8.50948 22.6851 8.46956 22.5052 8.33649 22.3913C8.19012 22.2534 7.99052 22.2354 7.90403 22.3313ZM7.14557 21.4498C7.03911 21.5098 7.03911 21.6657 7.14557 21.8036C7.25202 21.9416 7.43165 22.0015 7.51815 21.9416C7.6246 21.8636 7.6246 21.7077 7.51815 21.5698C7.425 21.4318 7.25202 21.3719 7.14557 21.4498Z" fill="#003DCC"/>
</svg>
